<svg width="260" height="260" viewBox="0 0 260 260" fill="none" xmlns="http://www.w3.org/2000/svg">
<path d="M236 130.001L238.083 127.912C267.304 98.6908 267.307 51.1423 238.083 21.9181C208.859 -7.30604 161.31 -7.30604 132.086 21.9181L130 24.001L127.917 21.9181C98.6933 -7.30604 51.1419 -7.30604 21.9178 21.9181C-7.3064 51.1423 -7.3064 98.6908 21.9207 127.912L24.0035 130.001L21.9207 132.084C-7.3064 161.308 -7.3064 208.853 21.9178 238.083C51.1448 267.305 98.6962 267.305 127.917 238.083L130 235.998L132.086 238.083C161.31 267.305 208.859 267.305 238.083 238.083C267.307 208.853 267.304 161.308 238.083 132.084L236 130.001ZM141.313 31.1482C165.447 7.01426 204.716 7.01426 228.847 31.1482C252.981 55.2821 252.981 94.5539 228.85 118.685L158.583 188.952C153.204 194.334 151.892 200.718 158.268 207.169L160.669 209.498C174.131 222.96 196.035 222.96 209.497 209.498C222.96 196.035 222.96 174.129 209.5 160.666L207.414 158.581L212.473 153.525L214.559 155.611C230.814 171.861 230.814 198.309 214.559 214.559C198.309 230.809 171.858 230.809 155.608 214.559C155.608 214.559 154.585 213.698 153.201 212.306C151.93 211.014 139.268 198.153 153.525 183.893L223.789 113.626C245.135 92.2832 245.135 57.5557 223.789 36.2095C202.445 14.8692 167.721 14.8692 146.378 36.2124L144.289 38.2953L139.228 33.2369L141.313 31.1482ZM200.267 200.27C191.892 208.64 178.268 208.64 169.893 200.27L167.81 198.185L198.181 167.814L200.267 169.894C208.639 178.271 208.639 191.893 200.267 200.27ZM31.1478 31.1482C55.2817 7.01426 94.5535 7.01426 118.687 31.1482L188.948 101.409L183.887 106.476L113.623 36.2095C92.277 14.8663 57.5553 14.8663 36.2121 36.2095C14.8659 57.5528 14.8659 92.2803 36.2121 113.624L38.295 115.709L33.2336 120.771L31.1478 118.688C7.0139 94.5539 7.0139 55.285 31.1478 31.1482ZM167.813 61.8139L169.896 59.7281C178.268 51.3561 191.892 51.3561 200.27 59.7281C208.639 68.1002 208.639 81.7213 200.27 90.1021L198.184 92.185L167.813 61.8139ZM50.5006 160.664C37.0354 174.126 37.0383 196.032 50.5006 209.495C63.96 222.957 85.8666 222.957 99.3289 209.495L101.415 207.409C111.702 197.127 99.3202 186.886 93.3633 180.926L89.4835 177.015L71.0436 158.575L76.105 153.519L100.632 178.043L102.567 179.985C120.6 198.008 107.874 211.069 106.476 212.467L104.39 214.553C88.1372 230.812 61.6922 230.803 45.4363 214.553C29.1862 198.303 29.1862 171.855 45.4392 155.599L115.709 85.3354L120.767 90.4025L50.5006 160.664ZM61.8135 167.816L92.1846 198.179L90.0988 200.268C81.7239 208.637 68.1027 208.642 59.7306 200.268C51.3586 191.896 51.3586 178.269 59.7306 169.897L61.8135 167.816ZM129.997 99.6297L160.366 130.001L129.997 160.366L99.6264 130.001L129.997 99.6297ZM99.3318 50.5038C85.8695 37.0358 63.9629 37.0415 50.5035 50.5038C37.0412 63.9604 37.0383 85.8698 50.5035 99.3321L52.5864 101.418L47.525 106.476L45.4392 104.393C29.1862 88.1376 29.1891 61.6926 45.4392 45.4367C61.6951 29.1866 88.1401 29.1837 104.393 45.4367L174.66 115.704L169.599 120.765L99.3318 50.5038ZM92.1846 61.8168L61.8135 92.185L59.7306 90.1021C51.3557 81.7271 51.3557 68.1031 59.7278 59.7281C68.0998 51.3561 81.7239 51.3561 90.0988 59.7339L92.1846 61.8168ZM228.847 228.85C204.716 252.984 165.447 252.984 141.313 228.85L138.687 226.502C138.115 225.927 133.276 221.12 129.711 213.692C126.386 220.712 121.972 225.525 120.773 226.765L118.687 228.85C94.5535 252.984 55.2817 252.984 31.1478 228.85C7.0139 204.716 7.0139 165.448 31.1478 141.308L101.415 71.0468L106.476 76.1111L36.2121 146.375C14.8659 167.721 14.8659 202.446 36.2121 223.789C57.5553 245.135 92.2799 245.135 113.623 223.789L115.822 221.588C121.363 215.836 125.546 206.958 125.855 197.815C125.855 197.546 125.875 197.278 125.881 197.015C125.944 189.867 123.604 182.625 117.619 176.633C113.909 172.924 106.467 165.482 106.467 165.482L105.396 164.341L85.3408 144.289L90.4022 139.225L118.404 167.227L120.753 169.619C124.907 173.776 127.857 177.913 129.885 181.952C131.921 178.058 134.81 174.065 138.846 170.027L139.233 169.599L209.503 99.335C222.962 85.8727 222.962 63.9633 209.5 50.501C196.041 37.0387 174.134 37.0387 160.672 50.501L158.586 52.5896L153.528 47.5283L155.611 45.4396C171.861 29.1895 198.311 29.1895 214.562 45.4396C230.817 61.6955 230.817 88.1405 214.562 104.391L144.286 174.66L142.07 176.885C128.007 190.948 133.531 211.087 143.815 221.365L146.375 223.789C167.718 245.135 202.443 245.135 223.786 223.789C245.132 202.446 245.132 167.721 223.786 146.375L221.7 144.289L226.761 139.225L228.847 141.314C252.981 165.448 252.981 204.714 228.847 228.85Z" fill="url(#paint0_linear_301_115)"/>
<defs>
<linearGradient id="paint0_linear_301_115" x1="130" y1="0" x2="130" y2="259.999" gradientUnits="userSpaceOnUse">
<stop stop-color="#DADADA"/>
<stop offset="1" stop-color="black"/>
</linearGradient>
</defs>
</svg>
